<svg xmlns="http://www.w3.org/2000/svg" xmlns:xlink="http://www.w3.org/1999/xlink" width="500" zoomAndPan="magnify" viewBox="0 0 375 112.499997" height="150" preserveAspectRatio="xMidYMid meet" version="1.0"><defs><g/></defs><g fill="#000000" fill-opacity="1"><g transform="translate(4.945319, 72.354073)"><g><path d="M 2.140625 -40.53125 L 13.015625 -40.53125 L 24.8125 -12.734375 L 36.6875 -40.53125 L 46.640625 -40.53125 L 46.640625 0 L 36.6875 0 L 36.6875 -36.6875 L 21.046875 0 L 19.40625 0 L 3.5625 -37.1875 L 3.5625 0 L 2.140625 0 Z M 2.140625 -40.53125 "/></g></g></g><g fill="#000000" fill-opacity="1"><g transform="translate(50.806019, 72.354073)"><g><path d="M 12.796875 0.359375 C 9.617188 0.359375 7.046875 -0.382812 5.078125 -1.875 C 3.117188 -3.375 2.140625 -5.40625 2.140625 -7.96875 C 2.140625 -10.144531 2.753906 -11.875 3.984375 -13.15625 C 5.210938 -14.4375 6.703125 -15.359375 8.453125 -15.921875 C 10.210938 -16.492188 12.488281 -17.066406 15.28125 -17.640625 C 17.507812 -18.066406 19.265625 -18.46875 20.546875 -18.84375 C 21.828125 -19.21875 22.894531 -19.773438 23.75 -20.515625 C 24.601562 -21.253906 25.03125 -22.210938 25.03125 -23.390625 C 25.03125 -24.816406 24.601562 -26.070312 23.75 -27.15625 C 22.894531 -28.25 21.707031 -28.796875 20.1875 -28.796875 C 18.914062 -28.796875 18.03125 -28.441406 17.53125 -27.734375 C 17.03125 -27.023438 16.59375 -25.910156 16.21875 -24.390625 C 15.832031 -22.734375 15.332031 -21.488281 14.71875 -20.65625 C 14.101562 -19.820312 12.96875 -19.40625 11.3125 -19.40625 C 10.164062 -19.40625 9.222656 -19.785156 8.484375 -20.546875 C 7.753906 -21.304688 7.390625 -22.207031 7.390625 -23.25 C 7.390625 -24.382812 7.816406 -25.484375 8.671875 -26.546875 C 9.523438 -27.617188 10.890625 -28.5 12.765625 -29.1875 C 14.640625 -29.875 16.972656 -30.21875 19.765625 -30.21875 C 23.609375 -30.21875 26.785156 -29.390625 29.296875 -27.734375 C 31.804688 -26.078125 33.0625 -23.160156 33.0625 -18.984375 L 33.0625 0 C 30.269531 0 28.066406 -0.269531 26.453125 -0.8125 C 24.835938 -1.363281 23.796875 -2.421875 23.328125 -3.984375 C 22.046875 -2.609375 20.441406 -1.539062 18.515625 -0.78125 C 16.597656 -0.0195312 14.691406 0.359375 12.796875 0.359375 Z M 17.984375 -3.765625 C 19.984375 -3.765625 21.691406 -4.476562 23.109375 -5.90625 L 23.109375 -17.921875 C 22.492188 -17.585938 21.472656 -17.132812 20.046875 -16.5625 C 18.347656 -15.851562 16.988281 -15.210938 15.96875 -14.640625 C 14.945312 -14.078125 14.078125 -13.320312 13.359375 -12.375 C 12.648438 -11.425781 12.296875 -10.265625 12.296875 -8.890625 C 12.296875 -7.328125 12.851562 -6.082031 13.96875 -5.15625 C 15.082031 -4.226562 16.421875 -3.765625 17.984375 -3.765625 Z M 17.984375 -3.765625 "/></g></g></g><g fill="#000000" fill-opacity="1"><g transform="translate(83.086123, 72.354073)"><g><path d="M 12.65625 -29.859375 L 12.65625 -25.3125 C 15.351562 -28.582031 18.789062 -30.21875 22.96875 -30.21875 C 26.90625 -30.21875 30.101562 -28.878906 32.5625 -26.203125 C 35.03125 -23.523438 36.265625 -19.789062 36.265625 -15 L 36.265625 0 C 33.046875 0 30.582031 -0.390625 28.875 -1.171875 C 27.164062 -1.953125 26.3125 -3.484375 26.3125 -5.765625 L 26.3125 -15.78125 C 26.3125 -19.625 25.820312 -22.429688 24.84375 -24.203125 C 23.875 -25.984375 22.273438 -26.875 20.046875 -26.875 C 18.773438 -26.875 17.5 -26.519531 16.21875 -25.8125 C 14.9375 -25.101562 13.75 -24.0625 12.65625 -22.6875 L 12.65625 0 L 2.703125 0 L 2.703125 -29.859375 Z M 12.65625 -29.859375 "/></g></g></g><g fill="#000000" fill-opacity="1"><g transform="translate(118.565854, 72.354073)"><g><path d="M 8.03125 -31 C 6.613281 -31 5.429688 -31.472656 4.484375 -32.421875 C 3.535156 -33.367188 3.0625 -34.554688 3.0625 -35.984375 C 3.0625 -37.359375 3.535156 -38.519531 4.484375 -39.46875 C 5.429688 -40.414062 6.613281 -40.890625 8.03125 -40.890625 C 9.457031 -40.890625 10.644531 -40.414062 11.59375 -39.46875 C 12.539062 -38.519531 13.015625 -37.359375 13.015625 -35.984375 C 13.015625 -34.554688 12.539062 -33.367188 11.59375 -32.421875 C 10.644531 -31.472656 9.457031 -31 8.03125 -31 Z M 3.0625 -29.859375 L 13.015625 -29.859375 L 13.015625 0 L 3.0625 0 Z M 3.0625 -29.859375 "/></g></g></g><g fill="#000000" fill-opacity="1"><g transform="translate(131.719367, 72.354073)"><g><path d="M 12.796875 0.359375 C 9.617188 0.359375 7.046875 -0.382812 5.078125 -1.875 C 3.117188 -3.375 2.140625 -5.40625 2.140625 -7.96875 C 2.140625 -10.144531 2.753906 -11.875 3.984375 -13.15625 C 5.210938 -14.4375 6.703125 -15.359375 8.453125 -15.921875 C 10.210938 -16.492188 12.488281 -17.066406 15.28125 -17.640625 C 17.507812 -18.066406 19.265625 -18.46875 20.546875 -18.84375 C 21.828125 -19.21875 22.894531 -19.773438 23.75 -20.515625 C 24.601562 -21.253906 25.03125 -22.210938 25.03125 -23.390625 C 25.03125 -24.816406 24.601562 -26.070312 23.75 -27.15625 C 22.894531 -28.25 21.707031 -28.796875 20.1875 -28.796875 C 18.914062 -28.796875 18.03125 -28.441406 17.53125 -27.734375 C 17.03125 -27.023438 16.59375 -25.910156 16.21875 -24.390625 C 15.832031 -22.734375 15.332031 -21.488281 14.71875 -20.65625 C 14.101562 -19.820312 12.96875 -19.40625 11.3125 -19.40625 C 10.164062 -19.40625 9.222656 -19.785156 8.484375 -20.546875 C 7.753906 -21.304688 7.390625 -22.207031 7.390625 -23.25 C 7.390625 -24.382812 7.816406 -25.484375 8.671875 -26.546875 C 9.523438 -27.617188 10.890625 -28.5 12.765625 -29.1875 C 14.640625 -29.875 16.972656 -30.21875 19.765625 -30.21875 C 23.609375 -30.21875 26.785156 -29.390625 29.296875 -27.734375 C 31.804688 -26.078125 33.0625 -23.160156 33.0625 -18.984375 L 33.0625 0 C 30.269531 0 28.066406 -0.269531 26.453125 -0.8125 C 24.835938 -1.363281 23.796875 -2.421875 23.328125 -3.984375 C 22.046875 -2.609375 20.441406 -1.539062 18.515625 -0.78125 C 16.597656 -0.0195312 14.691406 0.359375 12.796875 0.359375 Z M 17.984375 -3.765625 C 19.984375 -3.765625 21.691406 -4.476562 23.109375 -5.90625 L 23.109375 -17.921875 C 22.492188 -17.585938 21.472656 -17.132812 20.046875 -16.5625 C 18.347656 -15.851562 16.988281 -15.210938 15.96875 -14.640625 C 14.945312 -14.078125 14.078125 -13.320312 13.359375 -12.375 C 12.648438 -11.425781 12.296875 -10.265625 12.296875 -8.890625 C 12.296875 -7.328125 12.851562 -6.082031 13.96875 -5.15625 C 15.082031 -4.226562 16.421875 -3.765625 17.984375 -3.765625 Z M 17.984375 -3.765625 "/></g></g></g><g fill="#000000" fill-opacity="1"><g transform="translate(180.258381, 73.059252)"><g><path d="M 2.125 -40.4375 L 12.984375 -40.4375 L 24.75 -12.703125 L 36.609375 -40.4375 L 46.53125 -40.4375 L 46.53125 0 L 36.609375 0 L 36.609375 -36.609375 L 21 0 L 19.359375 0 L 3.546875 -37.09375 L 3.546875 0 L 2.125 0 Z M 2.125 -40.4375 "/></g></g></g><g fill="#000000" fill-opacity="1"><g transform="translate(227.713686, 73.059252)"><g><path d="M 12.765625 0.359375 C 9.597656 0.359375 7.03125 -0.382812 5.0625 -1.875 C 3.101562 -3.363281 2.125 -5.382812 2.125 -7.9375 C 2.125 -10.113281 2.738281 -11.835938 3.96875 -13.109375 C 5.195312 -14.390625 6.6875 -15.3125 8.4375 -15.875 C 10.1875 -16.445312 12.457031 -17.019531 15.25 -17.59375 C 17.46875 -18.019531 19.21875 -18.421875 20.5 -18.796875 C 21.78125 -19.171875 22.84375 -19.722656 23.6875 -20.453125 C 24.539062 -21.191406 24.96875 -22.15625 24.96875 -23.34375 C 24.96875 -24.757812 24.539062 -26.007812 23.6875 -27.09375 C 22.84375 -28.1875 21.660156 -28.734375 20.140625 -28.734375 C 18.867188 -28.734375 17.984375 -28.375 17.484375 -27.65625 C 16.984375 -26.945312 16.546875 -25.835938 16.171875 -24.328125 C 15.796875 -22.671875 15.300781 -21.425781 14.6875 -20.59375 C 14.070312 -19.769531 12.9375 -19.359375 11.28125 -19.359375 C 10.144531 -19.359375 9.207031 -19.738281 8.46875 -20.5 C 7.738281 -21.257812 7.375 -22.160156 7.375 -23.203125 C 7.375 -24.335938 7.800781 -25.4375 8.65625 -26.5 C 9.507812 -27.5625 10.867188 -28.429688 12.734375 -29.109375 C 14.597656 -29.796875 16.925781 -30.140625 19.71875 -30.140625 C 23.550781 -30.140625 26.71875 -29.3125 29.21875 -27.65625 C 31.726562 -26.007812 32.984375 -23.101562 32.984375 -18.9375 L 32.984375 0 C 30.191406 0 27.992188 -0.269531 26.390625 -0.8125 C 24.785156 -1.351562 23.742188 -2.40625 23.265625 -3.96875 C 21.992188 -2.601562 20.398438 -1.539062 18.484375 -0.78125 C 16.566406 -0.0195312 14.660156 0.359375 12.765625 0.359375 Z M 17.953125 -3.765625 C 19.929688 -3.765625 21.628906 -4.472656 23.046875 -5.890625 L 23.046875 -17.875 C 22.429688 -17.539062 21.414062 -17.09375 20 -16.53125 C 18.300781 -15.820312 16.941406 -15.179688 15.921875 -14.609375 C 14.910156 -14.046875 14.046875 -13.289062 13.328125 -12.34375 C 12.617188 -11.394531 12.265625 -10.234375 12.265625 -8.859375 C 12.265625 -7.304688 12.820312 -6.066406 13.9375 -5.140625 C 15.050781 -4.222656 16.390625 -3.765625 17.953125 -3.765625 Z M 17.953125 -3.765625 "/></g></g></g><g fill="#000000" fill-opacity="1"><g transform="translate(261.620438, 73.059252)"><g><path d="M 12.625 -29.796875 L 12.625 -27.03125 C 14.039062 -28.070312 15.695312 -28.847656 17.59375 -29.359375 C 19.488281 -29.878906 21.40625 -30.140625 23.34375 -30.140625 C 25.894531 -30.140625 28.046875 -29.703125 29.796875 -28.828125 C 31.546875 -27.960938 32.421875 -26.769531 32.421875 -25.25 C 32.421875 -24.300781 32.078125 -23.492188 31.390625 -22.828125 C 30.703125 -22.171875 29.816406 -21.84375 28.734375 -21.84375 C 27.828125 -21.84375 27.078125 -22.054688 26.484375 -22.484375 C 25.898438 -22.910156 25.273438 -23.550781 24.609375 -24.40625 C 23.804688 -25.394531 23.035156 -26.148438 22.296875 -26.671875 C 21.566406 -27.191406 20.566406 -27.453125 19.296875 -27.453125 C 16.929688 -27.453125 14.707031 -26.457031 12.625 -24.46875 L 12.625 0 L 2.703125 0 L 2.703125 -29.796875 Z M 12.625 -29.796875 "/></g></g></g><g fill="#000000" fill-opacity="1"><g transform="translate(294.959703, 73.059252)"><g><path d="M 12.625 -40.4375 L 12.625 -21.78125 C 15.414062 -24.238281 18.664062 -26.1875 22.375 -27.625 C 26.09375 -29.070312 29.84375 -29.796875 33.625 -29.796875 L 33.625 -23.546875 C 29.226562 -23.546875 25.671875 -23.414062 22.953125 -23.15625 C 20.234375 -22.894531 17.691406 -22.222656 15.328125 -21.140625 L 17.375 -21.140625 C 19.269531 -21.140625 20.785156 -20.925781 21.921875 -20.5 C 23.054688 -20.070312 24.023438 -19.375 24.828125 -18.40625 C 25.628906 -17.4375 26.503906 -15.957031 27.453125 -13.96875 L 34.265625 0 L 29.859375 0 C 27.734375 0 26.125 -0.1875 25.03125 -0.5625 C 23.945312 -0.945312 23.0625 -1.597656 22.375 -2.515625 C 21.695312 -3.441406 20.835938 -4.96875 19.796875 -7.09375 L 15.328125 -16.3125 C 14.753906 -17.539062 14.300781 -18.390625 13.96875 -18.859375 C 13.644531 -19.335938 13.222656 -19.625 12.703125 -19.71875 C 12.703125 -19.71875 12.6875 -19.707031 12.65625 -19.6875 C 12.632812 -19.664062 12.625 -19.65625 12.625 -19.65625 L 12.625 0 L 2.703125 0 L 2.703125 -40.4375 Z M 12.625 -40.4375 "/></g></g></g><g fill="#000000" fill-opacity="1"><g transform="translate(329.580982, 73.059252)"><g/></g></g><g fill="#000000" fill-opacity="1"><g transform="translate(346.818035, 73.059252)"><g/></g></g><g fill="#000000" fill-opacity="1"><g transform="translate(364.055087, 73.059252)"><g/></g></g><g fill="#000000" fill-opacity="1"><g transform="translate(332.148952, 74.536907)"><g><path d="M 0.953125 -33.53125 C 3.140625 -26.203125 12.90625 -32.6875 11.21875 -38.046875 C 12.0625 -40.703125 7.390625 -41.71875 5.734375 -41.234375 C 2.65625 -40.390625 0.046875 -36.671875 0.953125 -33.53125 Z M 7.921875 -0.75 C 9.515625 -1.90625 9.71875 -3.875 10.09375 -5.6875 C 11.265625 -11.640625 12.59375 -19.984375 9.9375 -25.71875 C 8.71875 -28.328125 5.640625 -30.125 3.34375 -27.734375 C 1.703125 -25.984375 1.703125 -22.15625 1.484375 -19.984375 C 1.109375 -15.25 -0.046875 -7.234375 2.015625 -2.765625 C 3.140625 -0.421875 5.578125 0.90625 7.921875 -0.75 Z M 7.921875 -0.75 "/></g></g></g><g fill="#000000" fill-opacity="1"><g transform="translate(344.424708, 74.536907)"><g><path d="M 13.171875 0 C 21.6875 -0.15625 17.375 -21.15625 16.734375 -25.40625 C 18.859375 -25.40625 22.90625 -24.96875 24.34375 -26.84375 C 25.828125 -28.703125 24.5 -31.25 22.578125 -32.15625 C 19.765625 -33.484375 16.109375 -33 13.078125 -33.15625 C 10.359375 -33.3125 5.53125 -34.640625 3.078125 -33.53125 C 0.953125 -32.578125 0.21875 -30.03125 1.21875 -28 C 2.703125 -24.875 6.796875 -25.296875 9.671875 -25.453125 C 9.890625 -19.453125 9.25 -13.609375 9.03125 -7.65625 C 8.875 -4.625 9.03125 0.046875 13.171875 0 Z M 13.171875 0 "/></g></g></g></svg>