<svg xmlns="http://www.w3.org/2000/svg" xmlns:xlink="http://www.w3.org/1999/xlink" width="500" zoomAndPan="magnify" viewBox="0 0 375 374.999991" height="500" preserveAspectRatio="xMidYMid meet" version="1.0"><defs><g/></defs><g fill="#ffffff" fill-opacity="1"><g transform="translate(79.21516, 166.511577)"><g><path d="M 2.609375 -49.53125 L 15.90625 -49.53125 L 30.328125 -15.546875 L 44.828125 -49.53125 L 57 -49.53125 L 57 0 L 44.828125 0 L 44.828125 -44.828125 L 25.71875 0 L 23.71875 0 L 4.34375 -45.4375 L 4.34375 0 L 2.609375 0 Z M 2.609375 -49.53125 "/></g></g></g><g fill="#ffffff" fill-opacity="1"><g transform="translate(135.257171, 166.511577)"><g><path d="M 15.640625 0.4375 C 11.753906 0.4375 8.609375 -0.472656 6.203125 -2.296875 C 3.804688 -4.128906 2.609375 -6.609375 2.609375 -9.734375 C 2.609375 -12.398438 3.359375 -14.515625 4.859375 -16.078125 C 6.367188 -17.640625 8.195312 -18.765625 10.34375 -19.453125 C 12.488281 -20.148438 15.269531 -20.847656 18.6875 -21.546875 C 21.40625 -22.066406 23.546875 -22.554688 25.109375 -23.015625 C 26.671875 -23.484375 27.972656 -24.164062 29.015625 -25.0625 C 30.054688 -25.96875 30.578125 -27.144531 30.578125 -28.59375 C 30.578125 -30.320312 30.054688 -31.851562 29.015625 -33.1875 C 27.972656 -34.519531 26.523438 -35.1875 24.671875 -35.1875 C 23.109375 -35.1875 22.019531 -34.75 21.40625 -33.875 C 20.800781 -33.007812 20.269531 -31.648438 19.8125 -29.796875 C 19.34375 -27.773438 18.734375 -26.253906 17.984375 -25.234375 C 17.234375 -24.222656 15.84375 -23.71875 13.8125 -23.71875 C 12.425781 -23.71875 11.28125 -24.179688 10.375 -25.109375 C 9.476562 -26.035156 9.03125 -27.132812 9.03125 -28.40625 C 9.03125 -29.800781 9.550781 -31.148438 10.59375 -32.453125 C 11.644531 -33.753906 13.3125 -34.820312 15.59375 -35.65625 C 17.882812 -36.5 20.738281 -36.921875 24.15625 -36.921875 C 28.84375 -36.921875 32.722656 -35.90625 35.796875 -33.875 C 38.867188 -31.851562 40.40625 -28.296875 40.40625 -23.203125 L 40.40625 0 C 36.988281 0 34.296875 -0.332031 32.328125 -1 C 30.359375 -1.664062 29.082031 -2.953125 28.5 -4.859375 C 26.9375 -3.179688 24.976562 -1.878906 22.625 -0.953125 C 20.28125 -0.0234375 17.953125 0.4375 15.640625 0.4375 Z M 21.984375 -4.609375 C 24.410156 -4.609375 26.492188 -5.476562 28.234375 -7.21875 L 28.234375 -21.890625 C 27.484375 -21.484375 26.238281 -20.9375 24.5 -20.25 C 22.414062 -19.375 20.75 -18.585938 19.5 -17.890625 C 18.257812 -17.203125 17.203125 -16.273438 16.328125 -15.109375 C 15.460938 -13.953125 15.03125 -12.535156 15.03125 -10.859375 C 15.03125 -8.953125 15.707031 -7.429688 17.0625 -6.296875 C 18.425781 -5.171875 20.066406 -4.609375 21.984375 -4.609375 Z M 21.984375 -4.609375 "/></g></g></g><g fill="#ffffff" fill-opacity="1"><g transform="translate(174.703693, 166.511577)"><g><path d="M 15.46875 -36.5 L 15.46875 -30.9375 C 18.769531 -34.925781 22.96875 -36.921875 28.0625 -36.921875 C 32.875 -36.921875 36.785156 -35.285156 39.796875 -32.015625 C 42.804688 -28.742188 44.3125 -24.179688 44.3125 -18.328125 L 44.3125 0 C 40.375 0 37.363281 -0.476562 35.28125 -1.4375 C 33.195312 -2.394531 32.15625 -4.257812 32.15625 -7.03125 L 32.15625 -19.296875 C 32.15625 -23.984375 31.5625 -27.410156 30.375 -29.578125 C 29.1875 -31.753906 27.226562 -32.84375 24.5 -32.84375 C 22.9375 -32.84375 21.375 -32.40625 19.8125 -31.53125 C 18.25 -30.664062 16.800781 -29.394531 15.46875 -27.71875 L 15.46875 0 L 3.296875 0 L 3.296875 -36.5 Z M 15.46875 -36.5 "/></g></g></g><g fill="#ffffff" fill-opacity="1"><g transform="translate(218.06015, 166.511577)"><g><path d="M 9.8125 -37.890625 C 8.082031 -37.890625 6.632812 -38.46875 5.46875 -39.625 C 4.3125 -40.78125 3.734375 -42.226562 3.734375 -43.96875 C 3.734375 -45.644531 4.3125 -47.0625 5.46875 -48.21875 C 6.632812 -49.382812 8.082031 -49.96875 9.8125 -49.96875 C 11.550781 -49.96875 13 -49.382812 14.15625 -48.21875 C 15.320312 -47.0625 15.90625 -45.644531 15.90625 -43.96875 C 15.90625 -42.226562 15.320312 -40.78125 14.15625 -39.625 C 13 -38.46875 11.550781 -37.890625 9.8125 -37.890625 Z M 3.734375 -36.5 L 15.90625 -36.5 L 15.90625 0 L 3.734375 0 Z M 3.734375 -36.5 "/></g></g></g><g fill="#ffffff" fill-opacity="1"><g transform="translate(234.133971, 166.511577)"><g><path d="M 15.640625 0.4375 C 11.753906 0.4375 8.609375 -0.472656 6.203125 -2.296875 C 3.804688 -4.128906 2.609375 -6.609375 2.609375 -9.734375 C 2.609375 -12.398438 3.359375 -14.515625 4.859375 -16.078125 C 6.367188 -17.640625 8.195312 -18.765625 10.34375 -19.453125 C 12.488281 -20.148438 15.269531 -20.847656 18.6875 -21.546875 C 21.40625 -22.066406 23.546875 -22.554688 25.109375 -23.015625 C 26.671875 -23.484375 27.972656 -24.164062 29.015625 -25.0625 C 30.054688 -25.96875 30.578125 -27.144531 30.578125 -28.59375 C 30.578125 -30.320312 30.054688 -31.851562 29.015625 -33.1875 C 27.972656 -34.519531 26.523438 -35.1875 24.671875 -35.1875 C 23.109375 -35.1875 22.019531 -34.75 21.40625 -33.875 C 20.800781 -33.007812 20.269531 -31.648438 19.8125 -29.796875 C 19.34375 -27.773438 18.734375 -26.253906 17.984375 -25.234375 C 17.234375 -24.222656 15.84375 -23.71875 13.8125 -23.71875 C 12.425781 -23.71875 11.28125 -24.179688 10.375 -25.109375 C 9.476562 -26.035156 9.03125 -27.132812 9.03125 -28.40625 C 9.03125 -29.800781 9.550781 -31.148438 10.59375 -32.453125 C 11.644531 -33.753906 13.3125 -34.820312 15.59375 -35.65625 C 17.882812 -36.5 20.738281 -36.921875 24.15625 -36.921875 C 28.84375 -36.921875 32.722656 -35.90625 35.796875 -33.875 C 38.867188 -31.851562 40.40625 -28.296875 40.40625 -23.203125 L 40.40625 0 C 36.988281 0 34.296875 -0.332031 32.328125 -1 C 30.359375 -1.664062 29.082031 -2.953125 28.5 -4.859375 C 26.9375 -3.179688 24.976562 -1.878906 22.625 -0.953125 C 20.28125 -0.0234375 17.953125 0.4375 15.640625 0.4375 Z M 21.984375 -4.609375 C 24.410156 -4.609375 26.492188 -5.476562 28.234375 -7.21875 L 28.234375 -21.890625 C 27.484375 -21.484375 26.238281 -20.9375 24.5 -20.25 C 22.414062 -19.375 20.75 -18.585938 19.5 -17.890625 C 18.257812 -17.203125 17.203125 -16.273438 16.328125 -15.109375 C 15.460938 -13.953125 15.03125 -12.535156 15.03125 -10.859375 C 15.03125 -8.953125 15.707031 -7.429688 17.0625 -6.296875 C 18.425781 -5.171875 20.066406 -4.609375 21.984375 -4.609375 Z M 21.984375 -4.609375 "/></g></g></g><g fill="#ffffff" fill-opacity="1"><g transform="translate(62.395524, 227.208665)"><g><path d="M 2.609375 -49.53125 L 15.90625 -49.53125 L 30.328125 -15.546875 L 44.828125 -49.53125 L 57 -49.53125 L 57 0 L 44.828125 0 L 44.828125 -44.828125 L 25.71875 0 L 23.71875 0 L 4.34375 -45.4375 L 4.34375 0 L 2.609375 0 Z M 2.609375 -49.53125 "/></g></g></g><g fill="#ffffff" fill-opacity="1"><g transform="translate(120.523038, 227.208665)"><g><path d="M 15.640625 0.4375 C 11.753906 0.4375 8.609375 -0.472656 6.203125 -2.296875 C 3.804688 -4.128906 2.609375 -6.609375 2.609375 -9.734375 C 2.609375 -12.398438 3.359375 -14.515625 4.859375 -16.078125 C 6.367188 -17.640625 8.195312 -18.765625 10.34375 -19.453125 C 12.488281 -20.148438 15.269531 -20.847656 18.6875 -21.546875 C 21.40625 -22.066406 23.546875 -22.554688 25.109375 -23.015625 C 26.671875 -23.484375 27.972656 -24.164062 29.015625 -25.0625 C 30.054688 -25.96875 30.578125 -27.144531 30.578125 -28.59375 C 30.578125 -30.320312 30.054688 -31.851562 29.015625 -33.1875 C 27.972656 -34.519531 26.523438 -35.1875 24.671875 -35.1875 C 23.109375 -35.1875 22.019531 -34.75 21.40625 -33.875 C 20.800781 -33.007812 20.269531 -31.648438 19.8125 -29.796875 C 19.34375 -27.773438 18.734375 -26.253906 17.984375 -25.234375 C 17.234375 -24.222656 15.84375 -23.71875 13.8125 -23.71875 C 12.425781 -23.71875 11.28125 -24.179688 10.375 -25.109375 C 9.476562 -26.035156 9.03125 -27.132812 9.03125 -28.40625 C 9.03125 -29.800781 9.550781 -31.148438 10.59375 -32.453125 C 11.644531 -33.753906 13.3125 -34.820312 15.59375 -35.65625 C 17.882812 -36.5 20.738281 -36.921875 24.15625 -36.921875 C 28.84375 -36.921875 32.722656 -35.90625 35.796875 -33.875 C 38.867188 -31.851562 40.40625 -28.296875 40.40625 -23.203125 L 40.40625 0 C 36.988281 0 34.296875 -0.332031 32.328125 -1 C 30.359375 -1.664062 29.082031 -2.953125 28.5 -4.859375 C 26.9375 -3.179688 24.976562 -1.878906 22.625 -0.953125 C 20.28125 -0.0234375 17.953125 0.4375 15.640625 0.4375 Z M 21.984375 -4.609375 C 24.410156 -4.609375 26.492188 -5.476562 28.234375 -7.21875 L 28.234375 -21.890625 C 27.484375 -21.484375 26.238281 -20.9375 24.5 -20.25 C 22.414062 -19.375 20.75 -18.585938 19.5 -17.890625 C 18.257812 -17.203125 17.203125 -16.273438 16.328125 -15.109375 C 15.460938 -13.953125 15.03125 -12.535156 15.03125 -10.859375 C 15.03125 -8.953125 15.707031 -7.429688 17.0625 -6.296875 C 18.425781 -5.171875 20.066406 -4.609375 21.984375 -4.609375 Z M 21.984375 -4.609375 "/></g></g></g><g fill="#ffffff" fill-opacity="1"><g transform="translate(162.055069, 227.208665)"><g><path d="M 15.46875 -36.5 L 15.46875 -33.109375 C 17.207031 -34.378906 19.234375 -35.332031 21.546875 -35.96875 C 23.867188 -36.601562 26.21875 -36.921875 28.59375 -36.921875 C 31.71875 -36.921875 34.347656 -36.382812 36.484375 -35.3125 C 38.628906 -34.25 39.703125 -32.789062 39.703125 -30.9375 C 39.703125 -29.769531 39.28125 -28.78125 38.4375 -27.96875 C 37.601562 -27.164062 36.519531 -26.765625 35.1875 -26.765625 C 34.09375 -26.765625 33.179688 -27.023438 32.453125 -27.546875 C 31.734375 -28.066406 30.96875 -28.847656 30.15625 -29.890625 C 29.164062 -31.109375 28.222656 -32.035156 27.328125 -32.671875 C 26.429688 -33.304688 25.203125 -33.625 23.640625 -33.625 C 20.742188 -33.625 18.019531 -32.410156 15.46875 -29.984375 L 15.46875 0 L 3.296875 0 L 3.296875 -36.5 Z M 15.46875 -36.5 "/></g></g></g><g fill="#ffffff" fill-opacity="1"><g transform="translate(202.891991, 227.208665)"><g><path d="M 15.46875 -49.53125 L 15.46875 -26.671875 C 18.882812 -29.679688 22.863281 -32.070312 27.40625 -33.84375 C 31.957031 -35.613281 36.550781 -36.5 41.1875 -36.5 L 41.1875 -28.84375 C 35.800781 -28.84375 31.441406 -28.679688 28.109375 -28.359375 C 24.773438 -28.046875 21.660156 -27.222656 18.765625 -25.890625 L 21.28125 -25.890625 C 23.601562 -25.890625 25.457031 -25.628906 26.84375 -25.109375 C 28.238281 -24.585938 29.425781 -23.734375 30.40625 -22.546875 C 31.394531 -21.359375 32.46875 -19.550781 33.625 -17.125 L 41.96875 0 L 36.578125 0 C 33.972656 0 32.003906 -0.226562 30.671875 -0.6875 C 29.335938 -1.15625 28.25 -1.953125 27.40625 -3.078125 C 26.570312 -4.210938 25.519531 -6.082031 24.25 -8.6875 L 18.765625 -19.984375 C 18.066406 -21.492188 17.515625 -22.535156 17.109375 -23.109375 C 16.710938 -23.691406 16.191406 -24.039062 15.546875 -24.15625 C 15.546875 -24.15625 15.53125 -24.140625 15.5 -24.109375 C 15.476562 -24.078125 15.46875 -24.0625 15.46875 -24.0625 L 15.46875 0 L 3.296875 0 L 3.296875 -49.53125 Z M 15.46875 -49.53125 "/></g></g></g><g fill="#ffffff" fill-opacity="1"><g transform="translate(245.299238, 227.208665)"><g/></g></g><g fill="#ffffff" fill-opacity="1"><g transform="translate(266.412726, 227.208665)"><g/></g></g><g fill="#ffffff" fill-opacity="1"><g transform="translate(287.526214, 227.208665)"><g/></g></g><g fill="#ffffff" fill-opacity="1"><g transform="translate(308.639698, 227.208665)"><g/></g></g><g fill="#ffffff" fill-opacity="1"><g transform="translate(248.444719, 229.018636)"><g><path d="M 1.171875 -41.078125 C 3.84375 -32.09375 15.8125 -40.03125 13.734375 -46.609375 C 14.78125 -49.859375 9.046875 -51.09375 7.03125 -50.515625 C 3.25 -49.46875 0.0625 -44.921875 1.171875 -41.078125 Z M 9.703125 -0.90625 C 11.65625 -2.34375 11.90625 -4.75 12.375 -6.96875 C 13.796875 -14.25 15.421875 -24.46875 12.171875 -31.5 C 10.671875 -34.6875 6.90625 -36.90625 4.09375 -33.984375 C 2.078125 -31.828125 2.078125 -27.140625 1.828125 -24.46875 C 1.359375 -18.6875 -0.0625 -8.859375 2.46875 -3.390625 C 3.84375 -0.515625 6.828125 1.109375 9.703125 -0.90625 Z M 9.703125 -0.90625 "/></g></g></g><g fill="#ffffff" fill-opacity="1"><g transform="translate(263.481165, 229.018636)"><g><path d="M 16.140625 0 C 26.5625 -0.1875 21.28125 -25.90625 20.5 -31.109375 C 23.109375 -31.109375 28.0625 -30.59375 29.8125 -32.875 C 31.640625 -35.15625 30.015625 -38.28125 27.671875 -39.375 C 24.21875 -41.015625 19.71875 -40.421875 16.015625 -40.625 C 12.6875 -40.8125 6.765625 -42.4375 3.78125 -41.078125 C 1.171875 -39.90625 0.265625 -36.78125 1.5 -34.296875 C 3.3125 -30.46875 8.328125 -30.984375 11.84375 -31.1875 C 12.109375 -23.828125 11.328125 -16.65625 11.0625 -9.375 C 10.875 -5.65625 11.0625 0.0625 16.140625 0 Z M 16.140625 0 "/></g></g></g></svg>